<?xml version="1.0" encoding="UTF-8"?>
<!DOCTYPE svg PUBLIC "-//W3C//DTD SVG 1.1//EN" "http://www.w3.org/Graphics/SVG/1.1/DTD/svg11.dtd">
<svg xmlns="http://www.w3.org/2000/svg" version="1.1" width="100px" height="100px" style="shape-rendering:geometricPrecision; text-rendering:geometricPrecision; image-rendering:optimizeQuality; fill-rule:evenodd; clip-rule:evenodd" xmlns:xlink="http://www.w3.org/1999/xlink">
<g><path style="opacity:0.957" fill="#baaeb3" d="M 45.5,11.5 C 62.5496,11.5979 69.0496,19.9312 65,36.5C 58.4619,45.8791 49.9619,48.0457 39.5,43C 31.6625,35.4749 30.4958,26.9749 36,17.5C 38.8426,14.8373 42.0093,12.8373 45.5,11.5 Z M 48.5,20.5 C 56.4021,21.9749 58.7355,26.3082 55.5,33.5C 48.6865,38.0995 44.0199,36.4329 41.5,28.5C 42.4804,24.5269 44.8137,21.8602 48.5,20.5 Z"/></g>
<g><path style="opacity:0.961" fill="#baaeb2" d="M 41.5,57.5 C 54.8925,56.4536 67.5592,58.9536 79.5,65C 83.0579,66.8917 85.5579,69.7251 87,73.5C 87.4992,78.1548 87.6658,82.8215 87.5,87.5C 62.1667,87.5 36.8333,87.5 11.5,87.5C 8.75861,74.8091 13.4253,66.3091 25.5,62C 30.8742,60.1604 36.2075,58.6604 41.5,57.5 Z M 44.5,66.5 C 55.0435,66.2013 65.0435,68.3679 74.5,73C 76.019,74.3513 77.3523,75.8513 78.5,77.5C 59.1667,78.8333 39.8333,78.8333 20.5,77.5C 22.0243,75.1421 24.0243,73.3088 26.5,72C 32.4346,69.5229 38.4346,67.6896 44.5,66.5 Z"/></g>
</svg>
